<?xml version="1.0" encoding="utf-8"?>
<!-- Generator: Adobe Illustrator 25.4.1, SVG Export Plug-In . SVG Version: 6.00 Build 0)  -->
<svg version="1.1" id="Layer_1" xmlns="http://www.w3.org/2000/svg" xmlns:xlink="http://www.w3.org/1999/xlink" x="0px" y="0px"
	 viewBox="0 0 231.6 259.7" style="enable-background:new 0 0 231.6 259.7;" xml:space="preserve">
<style type="text/css">
	.st0{fill:#ED1C24;}
</style>
<path class="st0" d="M22.7,0C33.5,2.7,44.6,4.6,55,8.2c14.1,4.9,23.7,15.1,30,28.7c1.4,3.2,5.5,7.2,8.4,7.3
	c36.7,0.9,57.7,19.3,63.7,55.3c0.3,1.2,0.8,2.3,1.5,3.3c51.2,7.4,76.6,34.3,72.7,78c-3.3-1.3-6.7-2-9.3-3.8
	c-15.2-10.3-31-9.9-46.5-1.8c-7.2,3.8-12.4,2.9-19-0.8c-18.7-10.5-37.9-11.5-56.2,0.6c-7,4.6-12,3.1-18.7-0.4
	c-17.9-9.5-36.9-13.8-55-1c-4.7,3.3-8.8,10.7-9,16.4c-1,22.4-0.4,44.9-0.4,68.7L1,259.7c-0.4-5.3-0.9-9.9-0.9-14.4
	C0,168.2,0,91.1,0.1,14c0-4.7,1.2-9.3,1.9-14L22.7,0z"/>
</svg>
